<svg width="70" height="24" viewBox="0 0 70 24" fill="none" xmlns="http://www.w3.org/2000/svg">
<g clip-path="url(#clip0_612_1144)">
<path d="M23.9025 10.0224C24.0754 9.25113 23.9832 8.5221 23.8941 7.81699C23.8179 7.21488 23.746 6.64627 23.8547 6.11828C24.1123 4.86666 23.3135 3.49285 22.5886 2.4358C21.78 1.25663 20.905 1.08936 19.7571 0.981751C19.695 0.975958 19.6316 0.972961 19.5687 0.972961C18.7984 0.972961 18.155 1.40406 17.8092 1.63566C17.7195 1.69573 17.6268 1.75785 17.5997 1.76331C17.5566 1.7719 17.456 1.77324 17.3286 1.77497C16.9864 1.7795 16.4139 1.78715 15.7322 1.93319C15.0679 2.07555 14.5355 2.4139 14.5455 2.68745C14.5492 2.79106 14.625 2.92457 14.9648 2.97205C15.677 3.0716 16.3066 3.26451 16.8124 3.41947C16.9125 3.4501 17.0063 3.47887 17.0933 3.5045C17.6407 3.66605 18.1463 3.88679 18.3194 4.80207C18.4399 5.43853 17.3456 6.16882 16.3801 6.81321C15.9797 7.08044 15.6015 7.33288 15.2969 7.58039C14.2345 8.44359 12.2088 10.193 11.5599 10.8078C10.9448 11.3905 5.77206 14.9372 4.3816 15.6155C2.96071 16.3086 1.57591 17.3952 1.22891 18.0891C1.15114 18.2447 1.13449 18.3432 1.17484 18.4085C1.19249 18.437 1.22891 18.471 1.30236 18.471C1.3898 18.471 1.50952 18.4206 1.6128 18.3717C1.61294 18.3842 1.61527 18.3971 1.62073 18.4102C1.65156 18.4847 1.75091 18.4942 1.83402 18.4942C2.06115 18.4942 2.53461 18.401 3.112 18.2431C2.90464 18.3964 2.49319 18.6603 2.11882 18.9004C0.638929 19.85 -0.0182444 20.3111 0.000400673 20.5342C0.0106555 20.6577 0.0922945 20.8049 0.422912 20.8049C0.625878 20.8049 0.873192 20.7528 1.07196 20.7109C1.17511 20.6892 1.26447 20.6703 1.3262 20.6631C1.30369 20.7104 1.24596 20.7915 1.20501 20.8492C1.07236 21.0358 0.935187 21.2288 1.03287 21.3509C1.06217 21.3876 1.11205 21.4054 1.18517 21.4054C1.40391 21.4054 1.87111 21.2431 2.32292 21.0862C2.64548 20.9741 2.95013 20.8683 3.13425 20.8315C3.41539 20.7753 4.77821 20.0695 6.09609 19.3869C7.07935 18.8777 8.1938 18.3006 8.31373 18.2874C8.54726 18.2874 10.4339 18.1498 11.624 17.8097C11.8892 17.7339 12.1725 17.6955 12.4661 17.6955C13.1799 17.6955 13.8689 17.9174 14.4592 18.1379C14.4556 18.2816 14.452 18.4576 14.4482 18.6738C14.4382 19.2668 14.4337 19.8809 14.4352 20.0432C14.4371 20.2699 14.8652 20.6699 15.4696 21.2102C15.7182 21.4325 16.0234 21.7053 16.0795 21.8035C15.9782 21.8665 15.8229 21.8683 15.6303 21.8707C15.2939 21.8747 14.8333 21.8803 14.3554 22.2446C14.0771 22.4569 13.8931 22.7603 13.8514 22.9081C13.8475 22.9217 13.8358 22.9632 13.8615 22.9972C13.8758 23.0161 13.8978 23.0269 13.9218 23.0269C13.9419 23.0269 13.9621 23.0195 13.9838 23.0042L14.0329 22.9691C14.1887 22.8574 14.5537 22.5958 14.7498 22.5213C15.0147 22.4204 15.2094 22.3794 15.4218 22.3794C15.7007 22.3794 16.0303 22.451 16.5409 22.5833C16.8536 22.6643 17.1206 22.7037 17.357 22.7037C17.6646 22.7037 17.8879 22.6386 18.1243 22.5697C18.3994 22.4895 18.6837 22.4066 19.1487 22.4066C19.235 22.4066 19.3261 22.4095 19.4195 22.4154C19.9288 22.4473 20.3852 22.7125 20.6045 22.84C20.6989 22.8948 20.7275 22.9114 20.7584 22.9114L20.8054 22.9095L20.8231 22.8703C20.8462 22.8189 20.8171 22.7863 20.6778 22.6293C20.4436 22.3656 20.2246 22.2044 20.0128 22.1001C20.1423 22.0749 20.2618 22.0404 20.3846 22.0046C20.6597 21.9244 20.9441 21.8415 21.4089 21.8415C21.4953 21.8415 21.5864 21.8444 21.6797 21.8503C22.1891 21.8822 22.6455 22.1474 22.8648 22.2748C22.9593 22.3297 22.9878 22.3463 23.0187 22.3463L23.0657 22.3444L23.0834 22.3051C23.1065 22.2538 23.0775 22.2211 22.9381 22.0641C22.4424 21.5059 22.0132 21.4031 21.5809 21.34C21.4111 21.3153 21.2827 21.2582 21.2687 21.2013C21.2572 21.1548 21.3202 21.076 21.4374 20.9906C21.6453 20.8392 21.8544 20.7624 22.0589 20.7624C22.4212 20.7624 22.6466 21.0003 22.6711 21.0907C22.6822 21.1317 22.7146 21.1462 22.7391 21.1462C22.7641 21.1462 22.7971 21.1311 22.8077 21.0884C22.8278 21.0088 22.8037 20.6598 22.5089 20.5019C22.3617 20.423 22.1338 20.3796 21.8673 20.3796C21.2376 20.3796 20.5525 20.6011 19.988 20.9796C19.8756 20.9569 19.7469 20.9446 19.607 20.9446C19.5682 20.9446 19.5291 20.9458 19.4899 20.9475C19.0078 20.5621 18.1593 19.665 18.1104 19.3598C18.0782 19.1587 18.0595 18.5231 18.0595 17.9084C18.0595 17.9061 18.0595 17.9039 18.0595 17.9015C18.459 17.7028 18.8646 17.4687 19.335 17.192C21.6896 15.8072 23.5833 11.4462 23.9025 10.0224ZM16.7018 18.5707C16.6965 18.9921 16.6944 19.3581 16.6954 19.4782C16.6974 19.7048 17.1254 20.1048 17.7298 20.6451C17.9648 20.8552 18.25 21.1102 18.328 21.2205C18.2752 21.243 18.2227 21.2666 18.1707 21.2917C18.0903 21.3029 17.9963 21.3043 17.8907 21.3056C17.6728 21.3083 17.4029 21.3121 17.11 21.4129C16.6204 20.99 15.9036 20.2062 15.8585 19.9251C15.8342 19.7727 15.8252 19.3706 15.8202 18.9173C16.0146 18.8506 16.3042 18.7444 16.7018 18.5707Z" fill="#F2F2F8"/>
</g>
<path d="M33.152 6.8H36.384V18H33.152V6.8ZM40.016 6.8H43.632L39.184 12.048L43.872 18H40.112L35.488 12.144L40.016 6.8ZM43.8398 14.32C43.8398 13.5307 44.0264 12.848 44.3997 12.272C44.7731 11.696 45.2851 11.2533 45.9358 10.944C46.5971 10.624 47.3384 10.464 48.1598 10.464C48.9918 10.464 49.7331 10.624 50.3838 10.944C51.0344 11.2533 51.5464 11.696 51.9198 12.272C52.3038 12.848 52.4958 13.5307 52.4958 14.32C52.4958 15.0987 52.3038 15.776 51.9198 16.352C51.5464 16.928 51.0344 17.376 50.3838 17.696C49.7331 18.0053 48.9918 18.16 48.1598 18.16C47.3384 18.16 46.5971 18.0053 45.9358 17.696C45.2851 17.376 44.7731 16.928 44.3997 16.352C44.0264 15.776 43.8398 15.0987 43.8398 14.32ZM46.6878 14.32C46.6878 14.6613 46.7518 14.9547 46.8798 15.2C47.0184 15.4347 47.1998 15.616 47.4238 15.744C47.6478 15.8613 47.8931 15.92 48.1598 15.92C48.4264 15.92 48.6718 15.8613 48.8958 15.744C49.1198 15.616 49.3011 15.4347 49.4398 15.2C49.5784 14.9547 49.6478 14.6613 49.6478 14.32C49.6478 13.9787 49.5784 13.6907 49.4398 13.456C49.3011 13.2107 49.1198 13.024 48.8958 12.896C48.6718 12.768 48.4264 12.704 48.1598 12.704C47.8931 12.704 47.6478 12.768 47.4238 12.896C47.1998 13.024 47.0184 13.2107 46.8798 13.456C46.7518 13.6907 46.6878 13.9787 46.6878 14.32ZM56.5684 10.64V18H53.8644V10.64H56.5684ZM58.6644 13.472C58.547 13.344 58.4137 13.2427 58.2644 13.168C58.1257 13.0827 57.9497 13.04 57.7364 13.04C57.523 13.04 57.3257 13.0987 57.1444 13.216C56.963 13.3333 56.819 13.5093 56.7124 13.744C56.6164 13.9787 56.5684 14.272 56.5684 14.624L55.9924 13.52C55.9924 12.9333 56.1097 12.4107 56.3444 11.952C56.579 11.4933 56.8884 11.1307 57.2724 10.864C57.667 10.5867 58.0777 10.448 58.5044 10.448C58.771 10.448 59.027 10.512 59.2724 10.64C59.5177 10.7573 59.699 10.9067 59.8164 11.088L58.6644 13.472ZM60.311 10.64H63.239L64.807 14.4L66.359 10.64H69.287L64.807 18.944L60.311 10.64Z" fill="#F2F2F8"/>
<defs>
<clipPath id="clip0_612_1144">
<rect width="24" height="24" fill="white"/>
</clipPath>
</defs>
</svg>
